<?xml version="1.0" encoding="UTF-8" standalone="no"?>
<svg
   viewBox="0 0 576 512"
   version="1.1"
   id="svg5956"
   sodipodi:docname="battery-caution.svg"
   inkscape:version="1.2.1 (9c6d41e410, 2022-07-14)"
   xmlns:inkscape="http://www.inkscape.org/namespaces/inkscape"
   xmlns:sodipodi="http://sodipodi.sourceforge.net/DTD/sodipodi-0.dtd"
   xmlns="http://www.w3.org/2000/svg"
   xmlns:svg="http://www.w3.org/2000/svg">
  <defs
     id="defs5960">
    <rect
       x="203.09328"
       y="202.73909"
       width="24.837306"
       height="-167.60549"
       id="rect6133" />
    <linearGradient
       id="linearGradient3875"
       inkscape:swatch="solid">
      <stop
         style="stop-color:#ffffff;stop-opacity:1;"
         offset="0"
         id="stop3873" />
    </linearGradient>
  </defs>
  <sodipodi:namedview
     id="namedview5958"
     pagecolor="#ffffff"
     bordercolor="#000000"
     borderopacity="0.25"
     inkscape:showpageshadow="2"
     inkscape:pageopacity="0.0"
     inkscape:pagecheckerboard="0"
     inkscape:deskcolor="#d1d1d1"
     showgrid="false"
     inkscape:zoom="0.60145508"
     inkscape:cx="-177.9019"
     inkscape:cy="55.698258"
     inkscape:window-width="1499"
     inkscape:window-height="1080"
     inkscape:window-x="210"
     inkscape:window-y="24"
     inkscape:window-maximized="1"
     inkscape:current-layer="svg5956" />
  <!--! Font Awesome Pro 6.1.2 by @fontawesome - https://fontawesome.com License - https://fontawesome.com/license (Commercial License) Copyright 2022 Fonticons, Inc. -->
  <path
     id="path5954"
     d="M 80 96 C 35.820088 96 0 131.80008 0 176 L 0 336 C 0 380.19992 35.820088 416 80 416 L 464 416 C 508.19992 416 544 380.19992 544 336 L 544 320 C 561.69996 320 576 305.69996 576 288 L 576 224 C 576 206.30004 561.69996 192 544 192 L 544 176 C 544 131.80008 508.19992 96 464 96 L 80 96 z M 57.501953 122.44531 L 98.296875 122.44531 A 25.440544 25.440544 0 0 1 123.73438 147.88477 L 123.73438 160 L 464 160 C 472.79998 160 480 167.20002 480 176 L 480 336 C 480 344.79998 472.79998 352 464 352 L 128.08594 352 C 126.73905 363.22031 121.62718 374.66233 113.35156 382.57812 C 103.97791 391.54423 90.397031 396.5918 77.742188 396.5918 C 65.131914 396.5918 51.866362 391.50982 42.525391 382.94727 A 25.440544 25.440544 0 0 1 42.132812 382.57812 C 32.414372 373.28223 27.003906 359.12111 27.003906 346.16992 C 27.003906 333.22185 32.412916 319.06553 42.126953 309.76953 C 42.154783 309.74283 42.19084 309.72387 42.21875 309.69727 A 25.440544 25.440544 0 0 1 39.277344 302.33008 C 37.104287 287.11867 35.362966 272.00126 34.056641 256.97852 A 25.440544 25.440544 0 0 1 34.054688 256.94727 C 32.717527 241.34705 32.064453 224.6136 32.064453 206.70508 L 32.064453 147.88477 A 25.440544 25.440544 0 0 1 57.501953 122.44531 z " />
  <text
     xml:space="preserve"
     style="font-style:normal;font-variant:normal;font-weight:600;font-stretch:normal;font-size:316.246px;font-family:Ubuntu;-inkscape-font-specification:'Ubuntu Semi-Bold';fill:#000000;stroke:none;stroke-width:50.876;stroke-linecap:square;stroke-linejoin:round;stroke-opacity:1;paint-order:stroke fill markers"
     x="29.355682"
     y="367.04227"
     id="text6660"><tspan
       sodipodi:role="line"
       id="tspan6658"
       x="29.355682"
       y="367.04227"
       style="stroke-width:50.876;stroke:none">!</tspan></text>
  <g
     aria-label="!"
     id="text17413"
     style="font-weight:600;font-size:316.246px;font-family:Ubuntu;-inkscape-font-specification:'Ubuntu Semi-Bold';stroke:#ffffff;stroke-width:50.876;stroke-linecap:square;stroke-linejoin:round;paint-order:stroke fill markers">
    <g
       id="path17415" />
  </g>
</svg>
