<?xml version="1.0" encoding="UTF-8" standalone="no"?>
<svg
   viewBox="0 0 576 512"
   version="1.1"
   id="svg5956"
   sodipodi:docname="battery-missing.svg"
   inkscape:version="1.2.1 (9c6d41e410, 2022-07-14)"
   xmlns:inkscape="http://www.inkscape.org/namespaces/inkscape"
   xmlns:sodipodi="http://sodipodi.sourceforge.net/DTD/sodipodi-0.dtd"
   xmlns="http://www.w3.org/2000/svg"
   xmlns:svg="http://www.w3.org/2000/svg">
  <defs
     id="defs5960">
    <rect
       x="203.09328"
       y="202.73909"
       width="24.837306"
       height="-167.60549"
       id="rect6133" />
    <linearGradient
       id="linearGradient3875"
       inkscape:swatch="solid">
      <stop
         style="stop-color:#ffffff;stop-opacity:1;"
         offset="0"
         id="stop3873" />
    </linearGradient>
  </defs>
  <sodipodi:namedview
     id="namedview5958"
     pagecolor="#ffffff"
     bordercolor="#000000"
     borderopacity="0.25"
     inkscape:showpageshadow="2"
     inkscape:pageopacity="0.0"
     inkscape:pagecheckerboard="0"
     inkscape:deskcolor="#d1d1d1"
     showgrid="false"
     inkscape:zoom="0.30072754"
     inkscape:cx="179.56453"
     inkscape:cy="751.51081"
     inkscape:window-width="1146"
     inkscape:window-height="811"
     inkscape:window-x="69"
     inkscape:window-y="170"
     inkscape:window-maximized="0"
     inkscape:current-layer="svg5956"
     showguides="false" />
  <!--! Font Awesome Pro 6.1.2 by @fontawesome - https://fontawesome.com License - https://fontawesome.com/license (Commercial License) Copyright 2022 Fonticons, Inc. -->
  <path
     d="M464 96C508.2 96 544 131.8 544 176V192C561.7 192 576 206.3 576 224V288C576 305.7 561.7 320 544 320V336C544 380.2 508.2 416 464 416H80C35.82 416 0 380.2 0 336V176C0 131.8 35.82 96 80 96H464zM64 336C64 344.8 71.16 352 80 352H464C472.8 352 480 344.8 480 336V176C480 167.2 472.8 160 464 160H80C71.16 160 64 167.2 64 176V336z"
     id="path5954" />
  <text
     xml:space="preserve"
     style="font-style:normal;font-variant:normal;font-weight:600;font-stretch:normal;font-size:266.667px;font-family:Ubuntu;-inkscape-font-specification:'Ubuntu Semi-Bold';fill:#000000;stroke:none;stroke-width:50.876;stroke-linecap:square;stroke-linejoin:round;stroke-opacity:1;paint-order:stroke fill markers"
     x="174.39987"
     y="348.26678"
     id="text6660"><tspan
       sodipodi:role="line"
       id="tspan6658"
       x="174.39987"
       y="348.26678"
       style="font-style:italic;font-variant:normal;font-weight:bold;font-stretch:normal;font-size:266.667px;font-family:D050000L;-inkscape-font-specification:'D050000L Bold Italic';stroke:none;stroke-width:50.876">6</tspan></text>
</svg>
